<!--?xml version="1.0" standalone="no"?-->              <svg id="sw-js-blob-svg" viewBox="0 0 100 100" xmlns="http://www.w3.org/2000/svg">                    <defs>                         <linearGradient id="sw-gradient" x1="0" x2="1" y1="1" y2="0">                            <stop id="stop1" stop-color="rgba(69, 155, 238, 1)" offset="0%"></stop>                            <stop id="stop2" stop-color="rgba(69, 155, 238, 1)" offset="100%"></stop>                        </linearGradient>                    </defs>                <path fill="url(#sw-gradient)" d="M16.7,-28.2C22.3,-25.7,27.9,-22.6,32.8,-17.7C37.6,-12.9,41.7,-6.5,42.4,0.4C43,7.2,40.1,14.3,36.5,21.3C32.9,28.2,28.5,35,22.3,36.6C16,38.2,8,34.8,0.3,34.3C-7.5,33.8,-15,36.4,-21.9,35.1C-28.7,33.9,-35,28.9,-37.7,22.4C-40.3,15.9,-39.4,7.9,-39.4,0C-39.4,-8,-40.4,-15.9,-37.4,-21.8C-34.3,-27.7,-27.4,-31.5,-20.5,-33.2C-13.6,-34.8,-6.8,-34.4,-0.6,-33.3C5.6,-32.3,11.1,-30.6,16.7,-28.2Z" width="100%" height="100%" transform="translate(50 50)" stroke-width="0" style="transition: all 0.3s ease 0s;" stroke="url(#sw-gradient)"></path>              </svg>